<?xml version="1.0" encoding="UTF-8"?>
<svg width="115px" height="177px" viewBox="0 0 115 177" version="1.1" xmlns="http://www.w3.org/2000/svg" xmlns:xlink="http://www.w3.org/1999/xlink">
    <!-- Generator: Sketch 47.1 (45422) - http://www.bohemiancoding.com/sketch -->
    <title>deftones-logo-vector</title>
    <desc>Created with Sketch.</desc>
    <defs></defs>
    <g id="Page-1" stroke="none" stroke-width="1" fill="none" fill-rule="evenodd">
        <g id="deftones-logo-vector" fill="#FFFFFE">
            <path d="M11.529,2.239 C11.529,2.239 15.057,4.615 15.345,5.191 C15.633,5.767 16.569,7.423 17.577,7.135 C18.585,6.775 19.665,5.767 20.385,4.111 C21.105,2.527 23.049,0.583 23.049,0.583 C23.049,0.583 23.481,5.191 23.913,5.911 C24.417,6.631 24.993,8.287 24.993,8.287 C24.993,8.287 27.369,7.567 28.377,8.431 C29.385,9.295 33.129,12.751 33.849,13.183 C34.569,13.615 36.945,13.543 36.369,14.047 C35.361,14.911 33.849,15.271 33.849,15.271 C33.849,15.271 34.137,16.855 35.073,17.575 C35.937,18.367 38.169,19.231 38.169,19.231 C38.169,19.231 38.601,20.239 37.881,20.742 C37.089,21.175 36.081,22.039 36.081,22.039 C36.081,22.039 36.225,23.983 36.513,24.847 C36.801,25.711 40.689,29.167 42.993,30.319 C45.369,31.543 45.873,32.263 50.697,30.175 C55.593,28.087 65.672,24.272 67.761,24.703 C69.777,25.135 78.705,25.135 82.809,31.039 C86.985,37.015 93.897,44.36 98.216,45.727 C102.537,47.024 105.92,47.024 107.792,45.871 C109.737,44.647 112.257,43.351 112.257,43.351 C112.257,43.351 111.681,46.591 110.817,47.024 C109.88,47.528 108.441,48.391 108.441,48.391 C108.441,48.391 109.161,48.823 110.025,49.399 C110.96,49.975 111.249,50.91 110.025,51.487 C108.873,52.063 106.208,54.583 106.208,54.583 L103.977,55.807 C103.977,55.807 105.345,56.959 106.065,57.679 C106.785,58.471 107.216,59.479 106.208,59.767 C105.128,60.055 97.497,63.583 97.497,63.583 C97.497,63.583 93.609,65.959 91.521,63.44 C89.504,60.991 85.329,57.247 85.329,57.247 L83.385,52.999 C83.385,52.999 82.233,58.112 81.513,59.335 C80.721,60.487 78.417,63.799 78.417,63.799 C78.417,63.799 78.705,69.991 78.273,72.367 C77.769,74.742 77.336,78.559 77.625,80.503 C77.913,82.375 78.849,84.463 78.417,86.12 C77.913,87.703 75.105,93.391 74.097,95.551 C73.088,97.784 71.865,103.543 71.865,104.479 C71.865,105.343 71.289,109.448 71.289,109.448 C71.289,109.448 72.441,110.528 72.153,112.112 C71.865,113.767 68.913,116.143 68.913,116.143 L63.873,116.576 C63.873,116.576 63.873,111.824 64.809,110.528 C65.672,109.16 65.672,106.495 65.385,105.488 C65.097,104.479 64.161,104.479 64.305,99.583 C64.449,94.687 64.305,83.024 64.305,83.024 C64.305,83.024 63.153,79.135 60.201,77.047 C57.249,75.032 53.793,72.511 53.793,72.511 L52.929,71.143 L47.601,71.143 C47.601,71.143 44.361,79.423 43.209,81.511 C41.985,83.599 39.753,88.495 39.753,88.495 C39.753,88.495 38.889,89.647 39.177,91.735 C39.465,93.824 40.329,98.359 41.985,99.871 C43.641,101.311 44.505,100.591 45.225,99.439 C46.017,98.215 48.825,97.784 49.833,99.007 C50.841,100.16 52.065,100.879 52.065,100.879 C52.065,100.879 52.209,102.391 50.841,102.967 C49.545,103.543 48.177,104.191 46.881,104.479 C45.513,104.767 44.073,104.911 44.073,104.911 L43.929,106.495 L47.745,106.207 L48.969,109.663 C48.969,109.663 49.689,112.112 49.257,113.191 C48.825,114.2 47.025,115.999 47.025,115.999 C47.025,115.999 45.873,117.439 43.929,114.343 C41.985,111.247 40.041,108.007 40.041,107.287 C40.041,106.495 39.753,104.335 38.601,102.967 C37.377,101.671 32.553,96.343 32.553,96.343 C32.553,96.343 30.033,92.023 30.321,88.784 C30.609,85.543 30.609,84.319 30.609,84.319 C30.609,84.319 27.081,74.887 26.001,70.567 C24.993,66.247 22.905,60.343 22.905,60.343 C22.905,60.343 22.473,57.391 23.193,53.719 C23.913,49.975 24.561,43.784 23.337,40.112 C22.185,36.367 20.529,29.455 20.529,29.455 C20.529,29.455 16.425,33.847 15.777,34.639 C15.201,35.36 13.113,38.024 13.113,38.024 C13.113,38.024 10.593,38.887 10.017,38.599 C9.441,38.311 8.577,38.311 7.209,35.503 C5.913,32.696 6.633,32.12 7.929,29.167 C9.297,26.215 10.161,23.263 10.161,23.263 L10.305,15.847 C10.305,15.847 10.305,13.471 11.241,12.607 C12.105,11.671 12.825,9.799 12.825,9.799 C12.825,9.799 11.961,9.583 11.385,7.279 C10.809,4.903 11.529,2.239 11.529,2.239 Z M62.721,66.104 C62.721,66.104 65.097,65.095 65.817,64.231 C66.537,63.295 68.048,62.431 68.048,62.431 C68.048,62.431 66.969,67.759 69.201,71.936 C71.433,76.039 73.376,78.703 72.584,81.799 C71.865,84.895 71.433,87.703 71.433,88.639 C71.433,89.503 71.289,91.16 70.569,93.824 C69.777,96.488 68.481,98.864 68.481,98.864 C68.481,98.864 68.048,91.015 68.193,89.072 C68.336,87.127 70.065,81.223 70.065,81.223 C70.065,81.223 71.865,77.696 69.489,75.608 C67.113,73.52 64.593,71.431 63.729,69.991 C62.865,68.479 62.721,66.104 62.721,66.104 Z M36.225,73.663 C36.225,73.663 38.025,75.751 37.881,77.839 C37.665,79.927 36.225,82.879 36.225,82.879 C36.225,82.879 34.425,78.991 34.281,76.903 C34.137,74.887 36.225,73.663 36.225,73.663 L36.225,73.663 Z" id="Fill-77"></path>
            <path d="M22.185,125.791 L26.505,124.711 L15.345,159.919 C15.345,159.919 14.841,161.359 15.705,161.359 C16.569,161.359 19.161,159.703 19.161,159.703 C19.161,159.703 18.513,156.319 21.609,153.151 C24.705,150.055 29.385,148.543 31.905,150.127 C34.425,151.784 33.561,154.952 30.897,156.175 C28.161,157.471 26.289,158.408 24.777,158.767 C23.193,159.2 22.617,159.271 22.617,159.271 C22.617,159.271 22.977,162.511 26.649,161.143 C30.321,159.847 32.049,158.623 33.561,157.543 C35.145,156.535 36.297,155.023 36.297,155.023 C36.297,155.023 40.113,141.919 43.137,133.28 C46.089,124.711 50.049,121.543 50.841,121.112 C52.569,120.032 58.113,119.671 53.433,133.135 C50.409,141.631 41.121,151.423 41.121,151.423 L39.177,157.543 C39.177,157.543 41.985,156.535 44.001,155.24 C46.017,153.943 47.889,152.719 47.889,152.719 L49.473,147.967 L47.673,147.967 L47.673,146.887 L49.761,146.887 L53.073,137.383 L57.105,136.591 L53.865,146.671 L57.609,146.815 L57.464,147.895 L53.289,147.895 L49.401,160.063 C49.401,160.063 49.185,161.503 49.905,161.359 C50.697,161.215 54.873,158.479 54.873,158.479 C54.873,158.479 54.585,154.952 58.185,152.215 C60.489,150.488 63.945,149.479 66.249,150.127 C68.553,150.775 70.497,153.151 69.777,156.175 C68.985,159.2 65.817,163.952 60.345,163.087 C54.873,162.223 55.089,159.559 55.089,159.559 L49.473,162.871 C49.473,162.871 47.961,163.663 46.521,162.727 C45.081,161.719 45.873,159.775 46.305,157.831 C46.737,155.887 47.169,154.519 47.169,154.519 C47.169,154.519 44.217,156.175 42.705,156.967 C41.265,157.759 38.817,158.767 38.817,158.767 C38.817,158.767 36.153,166.543 35.361,168.919 C34.641,171.223 33.201,175.039 33.201,175.039 C33.201,175.039 27.801,177.127 28.665,176.191 C29.601,175.327 31.689,168.919 32.841,165.463 C33.993,162.079 35.145,158.911 35.145,158.911 L34.065,158.335 C34.065,158.335 28.161,162.656 24.921,162.799 C21.609,162.871 19.737,160.711 19.737,160.711 C19.737,160.711 16.929,163.519 13.761,162.871 C10.593,162.223 12.321,158.696 12.321,158.696 L12.465,157.399 C12.465,157.399 8.649,164.311 2.889,162.799 C-1.143,161.719 1.449,155.743 2.745,154.015 C7.497,147.895 14.841,150.055 14.841,150.055 L22.185,125.791 Z M41.985,148.687 C42.057,148.399 43.713,141.847 46.233,134.791 C48.825,127.735 51.129,121.975 52.857,121.687 C54.657,121.327 54.153,128.311 49.905,136.231 C45.657,144.079 41.985,148.687 41.985,148.687 Z M22.833,158.047 C23.121,157.399 23.985,154.16 26.001,152.359 C28.017,150.559 29.673,150.271 30.465,151.207 C31.329,152.072 31.041,154.879 27.225,156.535 C23.337,158.191 22.833,158.047 22.833,158.047 Z M14.193,151.495 C14.193,151.495 8.937,148.616 6.273,154.231 C3.537,159.847 4.905,160.495 5.913,160.999 C6.921,161.431 9.657,160.135 11.817,156.463 C14.049,152.791 14.193,151.495 14.193,151.495 Z M59.769,155.815 C59.769,155.815 62,149.983 64.737,150.775 C67.401,151.495 66.249,154.952 65.313,157.255 C64.305,159.488 63.081,162.007 60.632,162.079 C57.609,162.151 59.769,155.815 59.769,155.815 L59.769,155.815 Z" id="Fill-78"></path>
            <path d="M73.593,150.703 L77.985,150.055 L75.969,156.751 C75.969,156.751 80,149.191 84.609,150.055 C89.145,150.847 85.833,156.824 85.833,156.824 C85.833,156.824 84.033,161.359 84.897,161.647 C85.833,162.007 89,159.343 89,159.343 C89,159.343 88.929,154.231 93.752,151.495 C98.577,148.831 102.249,149.983 102.752,151.207 C103.257,152.431 104.121,155.383 98.865,157.399 C93.681,159.488 92.601,159.271 92.601,159.271 C92.601,159.271 91.809,161.864 95.265,161.719 C98.792,161.647 101.529,158.551 104.481,155.959 C107.433,153.368 109.737,151.207 109.737,151.207 C109.737,151.207 110.025,147.679 111.537,147.247 C113.121,146.887 114.345,147.824 113.913,148.904 C113.409,150.055 111.033,151.351 111.033,151.351 C111.033,151.351 114.489,153.439 114.345,157.399 C114.128,161.287 110.96,162.799 108.081,163.015 C105.201,163.303 102.249,163.16 102.825,160.639 C103.401,158.119 106.641,161.431 106.641,161.431 C106.641,161.431 107.865,162.727 109.088,161.935 C110.241,161.143 110.889,158.911 110.529,156.175 C110.241,153.511 110.097,152.503 110.097,152.503 L109.376,152.647 L100.593,160.495 C100.593,160.495 97.857,163.16 94.544,163.087 C91.305,163.015 89.289,160.639 89.289,160.639 C89.289,160.639 85.905,164.023 82.809,163.231 C79.712,162.368 81.729,157.183 81.729,157.183 L83.025,153.368 C83.025,153.368 83.457,151.567 82.376,151.567 C81.225,151.567 79.712,152.791 78.632,154.519 C77.553,156.247 76.113,158.263 75.609,159.2 C75.105,160.207 73.953,162.871 73.953,162.871 L70.281,162.871 L73.593,150.703 Z M92.601,158.191 C92.817,157.543 93.752,154.303 95.769,152.503 C97.712,150.703 99.441,150.415 100.233,151.351 C101.097,152.215 100.809,155.023 96.993,156.679 C93.105,158.335 92.601,158.191 92.601,158.191 L92.601,158.191 Z" id="Fill-79"></path>
        </g>
    </g>
</svg>