<?xml version="1.0" encoding="UTF-8"?>
<svg width="115px" height="57px" viewBox="0 0 115 57" version="1.1" xmlns="http://www.w3.org/2000/svg" xmlns:xlink="http://www.w3.org/1999/xlink">
    <!-- Generator: Sketch 47.1 (45422) - http://www.bohemiancoding.com/sketch -->
    <title>deftones-logo-vector</title>
    <desc>Created with Sketch.</desc>
    <defs></defs>
    <g id="Page-1" stroke="none" stroke-width="1" fill="none" fill-rule="evenodd">
        <g id="deftones-logo-vector" fill="#FFFFFE">
            <path d="M22.185,5.791 L26.505,4.711 L15.345,39.919 C15.345,39.919 14.841,41.359 15.705,41.359 C16.569,41.359 19.161,39.703 19.161,39.703 C19.161,39.703 18.513,36.319 21.609,33.151 C24.705,30.055 29.385,28.543 31.905,30.127 C34.425,31.784 33.561,34.952 30.897,36.175 C28.161,37.471 26.289,38.408 24.777,38.767 C23.193,39.2 22.617,39.271 22.617,39.271 C22.617,39.271 22.977,42.511 26.649,41.143 C30.321,39.847 32.049,38.623 33.561,37.543 C35.145,36.535 36.297,35.023 36.297,35.023 C36.297,35.023 40.113,21.919 43.137,13.28 C46.089,4.711 50.049,1.543 50.841,1.112 C52.569,0.032 58.113,-0.329 53.433,13.135 C50.409,21.631 41.121,31.423 41.121,31.423 L39.177,37.543 C39.177,37.543 41.985,36.535 44.001,35.24 C46.017,33.943 47.889,32.719 47.889,32.719 L49.473,27.967 L47.673,27.967 L47.673,26.887 L49.761,26.887 L53.073,17.383 L57.105,16.591 L53.865,26.671 L57.609,26.815 L57.464,27.895 L53.289,27.895 L49.401,40.063 C49.401,40.063 49.185,41.503 49.905,41.359 C50.697,41.215 54.873,38.479 54.873,38.479 C54.873,38.479 54.585,34.952 58.185,32.215 C60.489,30.488 63.945,29.479 66.249,30.127 C68.553,30.775 70.497,33.151 69.777,36.175 C68.985,39.2 65.817,43.952 60.345,43.087 C54.873,42.223 55.089,39.559 55.089,39.559 L49.473,42.871 C49.473,42.871 47.961,43.663 46.521,42.727 C45.081,41.719 45.873,39.775 46.305,37.831 C46.737,35.887 47.169,34.519 47.169,34.519 C47.169,34.519 44.217,36.175 42.705,36.967 C41.265,37.759 38.817,38.767 38.817,38.767 C38.817,38.767 36.153,46.543 35.361,48.919 C34.641,51.223 33.201,55.039 33.201,55.039 C33.201,55.039 27.801,57.127 28.665,56.191 C29.601,55.327 31.689,48.919 32.841,45.463 C33.993,42.079 35.145,38.911 35.145,38.911 L34.065,38.335 C34.065,38.335 28.161,42.656 24.921,42.799 C21.609,42.871 19.737,40.711 19.737,40.711 C19.737,40.711 16.929,43.519 13.761,42.871 C10.593,42.223 12.321,38.696 12.321,38.696 L12.465,37.399 C12.465,37.399 8.649,44.311 2.889,42.799 C-1.143,41.719 1.449,35.743 2.745,34.015 C7.497,27.895 14.841,30.055 14.841,30.055 L22.185,5.791 Z M41.985,28.687 C42.057,28.399 43.713,21.847 46.233,14.791 C48.825,7.735 51.129,1.975 52.857,1.687 C54.657,1.327 54.153,8.311 49.905,16.231 C45.657,24.079 41.985,28.687 41.985,28.687 Z M22.833,38.047 C23.121,37.399 23.985,34.16 26.001,32.359 C28.017,30.559 29.673,30.271 30.465,31.207 C31.329,32.072 31.041,34.879 27.225,36.535 C23.337,38.191 22.833,38.047 22.833,38.047 Z M14.193,31.495 C14.193,31.495 8.937,28.616 6.273,34.231 C3.537,39.847 4.905,40.495 5.913,40.999 C6.921,41.431 9.657,40.135 11.817,36.463 C14.049,32.791 14.193,31.495 14.193,31.495 Z M59.769,35.815 C59.769,35.815 62,29.983 64.737,30.775 C67.401,31.495 66.249,34.952 65.313,37.255 C64.305,39.488 63.081,42.007 60.632,42.079 C57.609,42.151 59.769,35.815 59.769,35.815 L59.769,35.815 Z" id="Fill-78"></path>
            <path d="M73.593,30.703 L77.985,30.055 L75.969,36.751 C75.969,36.751 80,29.191 84.609,30.055 C89.145,30.847 85.833,36.824 85.833,36.824 C85.833,36.824 84.033,41.359 84.897,41.647 C85.833,42.007 89,39.343 89,39.343 C89,39.343 88.929,34.231 93.752,31.495 C98.577,28.831 102.249,29.983 102.752,31.207 C103.257,32.431 104.121,35.383 98.865,37.399 C93.681,39.488 92.601,39.271 92.601,39.271 C92.601,39.271 91.809,41.864 95.265,41.719 C98.792,41.647 101.529,38.551 104.481,35.959 C107.433,33.368 109.737,31.207 109.737,31.207 C109.737,31.207 110.025,27.679 111.537,27.247 C113.121,26.887 114.345,27.824 113.913,28.904 C113.409,30.055 111.033,31.351 111.033,31.351 C111.033,31.351 114.489,33.439 114.345,37.399 C114.128,41.287 110.96,42.799 108.081,43.015 C105.201,43.303 102.249,43.16 102.825,40.639 C103.401,38.119 106.641,41.431 106.641,41.431 C106.641,41.431 107.865,42.727 109.088,41.935 C110.241,41.143 110.889,38.911 110.529,36.175 C110.241,33.511 110.097,32.503 110.097,32.503 L109.376,32.647 L100.593,40.495 C100.593,40.495 97.857,43.16 94.544,43.087 C91.305,43.015 89.289,40.639 89.289,40.639 C89.289,40.639 85.905,44.023 82.809,43.231 C79.712,42.368 81.729,37.183 81.729,37.183 L83.025,33.368 C83.025,33.368 83.457,31.567 82.376,31.567 C81.225,31.567 79.712,32.791 78.632,34.519 C77.553,36.247 76.113,38.263 75.609,39.2 C75.105,40.207 73.953,42.871 73.953,42.871 L70.281,42.871 L73.593,30.703 Z M92.601,38.191 C92.817,37.543 93.752,34.303 95.769,32.503 C97.712,30.703 99.441,30.415 100.233,31.351 C101.097,32.215 100.809,35.023 96.993,36.679 C93.105,38.335 92.601,38.191 92.601,38.191 L92.601,38.191 Z" id="Fill-79"></path>
        </g>
    </g>
</svg>